<?xml version="1.0" standalone="no"?>
<!DOCTYPE svg PUBLIC "-//W3C//DTD SVG 20010904//EN"
 "http://www.w3.org/TR/2001/REC-SVG-20010904/DTD/svg10.dtd">
<svg version="1.0" xmlns="http://www.w3.org/2000/svg"
 width="1262.000000pt" height="1441.000000pt" viewBox="0 0 1262.000000 1441.000000"
 preserveAspectRatio="xMidYMid meet">
<metadata>
Created by potrace 1.15, written by Peter Selinger 2001-2017
</metadata>
<g transform="translate(0.000000,1441.000000) scale(0.100000,-0.100000)"
fill="#000000" stroke="none">
<path d="M5663 13759 c-146 -24 -337 -90 -498 -172 -61 -30 -157 -78 -215
-105 -59 -27 -131 -65 -161 -84 -104 -66 -363 -302 -454 -413 -38 -46 -127
-251 -178 -410 -56 -174 -70 -265 -64 -432 4 -127 7 -147 25 -166 11 -12 30
-44 43 -72 12 -27 24 -53 25 -56 2 -4 -10 -26 -27 -49 -21 -29 -27 -45 -20
-50 9 -5 7 -11 -5 -20 -9 -8 -20 -25 -25 -38 -5 -14 -12 -22 -16 -18 -4 3 4
20 16 37 43 59 15 37 -64 -47 -54 -59 -84 -84 -96 -81 -12 3 -16 0 -12 -10 5
-13 2 -13 -19 1 -13 9 -27 13 -31 10 -9 -9 -42 63 -66 141 -16 56 -19 85 -14
138 3 37 10 67 14 67 5 0 9 8 9 18 0 9 14 30 30 46 16 16 32 37 35 47 6 17 17
23 37 20 4 0 5 6 2 14 -9 23 -71 30 -109 12 -56 -27 -70 -72 -70 -227 0 -162
20 -262 69 -343 27 -44 31 -58 21 -67 -18 -15 -27 -82 -12 -92 9 -6 9 -12 -1
-29 -12 -19 -12 -20 8 -14 19 6 21 5 11 -14 -6 -11 -20 -26 -31 -34 -17 -12
-18 -16 -7 -26 8 -6 17 -8 20 -4 14 13 6 -14 -9 -33 -15 -18 -15 -18 -9 4 4
12 3 22 -2 22 -9 0 -53 -62 -50 -71 1 -3 -13 -18 -30 -33 -18 -15 -33 -32 -33
-38 0 -6 6 -5 15 2 21 17 19 7 -10 -56 -16 -34 -34 -59 -50 -66 -15 -7 -24
-17 -21 -25 4 -9 1 -11 -5 -7 -7 4 -10 1 -7 -7 3 -8 10 -13 16 -12 19 4 -1
-42 -32 -72 -30 -29 -92 -141 -88 -158 1 -5 -7 -20 -18 -34 -11 -14 -20 -34
-20 -44 0 -10 -4 -21 -10 -24 -5 -3 -15 -15 -20 -25 -8 -16 -8 -18 5 -14 21 8
19 -8 -5 -34 -11 -12 -20 -26 -20 -32 0 -5 -4 -10 -8 -10 -5 0 -14 -11 -20
-25 -15 -32 -15 -38 -2 -30 5 3 10 2 10 -4 0 -5 -4 -13 -10 -16 -5 -3 -10 -13
-10 -22 0 -9 -11 -31 -25 -49 -14 -18 -25 -36 -25 -41 0 -4 12 7 26 25 14 18
30 30 35 26 5 -3 8 -2 7 3 -1 4 4 19 11 32 8 14 9 21 2 17 -23 -15 -10 11 19
36 17 14 30 32 30 39 0 7 -13 0 -30 -16 -16 -16 -30 -23 -30 -17 0 7 3 12 8
12 4 0 13 14 20 30 8 17 20 30 28 30 8 0 14 5 14 11 0 16 83 49 108 42 26 -6
24 -29 -2 -27 -9 1 -16 -5 -16 -12 0 -8 -7 -17 -15 -20 -9 -4 -15 -19 -15 -35
0 -16 -5 -29 -11 -29 -6 0 -20 -11 -31 -25 -11 -14 -25 -25 -33 -25 -7 0 -16
-7 -19 -16 -3 -8 -2 -12 4 -9 6 3 10 3 10 0 0 -9 -43 -68 -63 -85 -10 -8 -19
-22 -21 -30 -1 -8 -12 -31 -24 -50 -17 -27 -22 -31 -22 -15 -1 19 -1 19 -14 2
-12 -16 -14 -16 -20 -2 -3 9 -2 13 3 10 5 -3 12 -1 16 5 4 6 10 8 14 5 5 -2 6
6 4 20 -5 21 -8 22 -29 13 -13 -6 -22 -13 -19 -16 3 -3 0 -11 -6 -19 -9 -10
-7 -18 7 -34 10 -11 14 -20 9 -19 -18 4 -35 0 -33 -7 8 -37 -51 -99 -67 -73
-4 6 0 10 8 10 17 0 53 38 44 46 -3 3 -12 -3 -19 -15 -7 -12 -16 -21 -20 -21
-4 0 -27 -15 -51 -33 -24 -18 -59 -39 -78 -46 -43 -16 -79 -33 -59 -28 8 3 21
-1 27 -9 10 -10 9 -14 -5 -18 -20 -7 -43 -74 -35 -104 3 -12 -2 -33 -11 -47
-9 -13 -16 -30 -16 -38 0 -7 -9 -33 -21 -56 -11 -24 -18 -53 -15 -64 3 -14 -2
-30 -16 -44 -17 -18 -19 -26 -10 -35 17 -17 15 -28 -7 -28 -23 0 -31 -17 -24
-53 3 -17 1 -27 -7 -27 -6 0 -31 -13 -55 -30 -24 -16 -53 -30 -64 -30 -12 0
-18 -5 -16 -12 4 -10 -16 -13 -82 -11 -48 1 -92 -2 -98 -6 -5 -4 -59 -9 -120
-10 -129 -3 -174 -7 -195 -15 -8 -3 -31 -5 -50 -4 -43 2 -181 -10 -270 -23
-36 -6 -78 -12 -95 -14 -87 -9 -143 -18 -170 -26 -26 -7 -126 -27 -305 -58
-25 -5 -78 -16 -118 -25 -40 -9 -88 -16 -107 -16 -19 0 -37 -4 -40 -10 -3 -5
-18 -10 -33 -10 -36 0 -111 -24 -158 -50 -41 -22 -43 -22 71 5 33 8 184 37
335 64 691 125 1170 180 1566 181 107 0 112 -1 118 -22 3 -13 6 -29 6 -35 0
-10 -93 -13 -417 -15 l-418 -3 0 -25 c0 -13 -11 -35 -24 -48 -13 -13 -21 -25
-19 -27 16 -16 148 -21 175 -7 12 7 30 12 40 11 16 0 16 -1 -1 -8 -18 -7 -18
-8 5 -14 32 -9 41 -9 35 1 -3 4 24 12 59 18 38 5 61 6 58 0 -4 -5 0 -6 8 -1
16 11 21 11 164 19 61 4 119 9 130 12 11 3 7 -3 -11 -14 -18 -11 -35 -25 -39
-31 -3 -6 -12 -8 -18 -4 -7 4 -4 -5 6 -20 9 -15 13 -27 7 -27 -5 0 -10 5 -10
12 0 7 -6 6 -17 -4 -21 -18 -42 -13 -61 14 -7 10 -18 18 -24 18 -6 0 -3 -9 7
-20 10 -11 15 -23 12 -26 -4 -4 -9 1 -13 10 -8 22 -28 21 -20 -1 5 -15 4 -15
-9 1 -13 17 -15 18 -15 3 0 -28 -43 -21 -62 10 l-16 27 -13 -26 c-6 -15 -16
-25 -20 -22 -5 3 -9 1 -9 -5 0 -16 -30 -6 -45 16 -8 11 -13 22 -12 25 1 2 -11
-10 -28 -27 -23 -23 -37 -29 -62 -27 -17 2 -37 10 -43 17 -10 12 -8 16 11 24
14 5 34 5 47 0 32 -12 27 5 -5 20 -26 12 -30 11 -61 -26 -34 -38 -60 -45 -90
-21 -10 9 -10 14 0 26 12 13 10 14 -11 3 -15 -9 -20 -16 -12 -20 8 -5 7 -13
-4 -27 -13 -18 -14 -18 -8 6 5 21 3 23 -8 12 -16 -15 -89 -16 -89 -1 0 7 15
10 41 7 36 -3 38 -2 22 10 -17 14 -17 14 4 9 13 -3 23 -1 23 4 0 5 -14 9 -31
9 -23 0 -41 -9 -65 -35 -18 -19 -34 -31 -36 -26 -4 13 -87 21 -94 9 -3 -4 -10
-5 -16 -2 -7 4 -7 9 1 13 6 4 -5 7 -25 8 -28 1 -39 -5 -57 -28 -20 -28 -22
-29 -29 -9 -4 11 -17 20 -30 21 -18 1 -19 2 -5 6 10 3 24 0 32 -7 9 -7 15 -8
20 -1 10 17 -44 25 -71 11 -13 -7 -29 -26 -36 -42 -7 -15 -16 -28 -21 -28 -4
0 -3 9 3 20 14 27 -8 50 -48 50 -21 0 -38 -9 -56 -31 -28 -33 -36 -27 -10 9
15 22 15 22 -35 22 -59 0 -81 -7 -81 -26 0 -8 -8 -14 -17 -14 -16 -1 -16 -2 1
-11 14 -9 20 -8 26 1 4 7 25 14 46 16 38 4 38 3 15 -10 -14 -8 -30 -12 -37 -9
-7 2 -17 -5 -24 -16 -7 -14 -7 -21 0 -21 5 0 10 -7 10 -15 0 -8 -4 -15 -10
-15 -5 0 -10 6 -10 13 0 9 -2 9 -8 0 -4 -7 -16 -11 -27 -9 -11 2 -23 -2 -28
-8 -5 -8 -10 -6 -17 4 -8 12 -10 13 -10 1 0 -8 -3 -11 -7 -8 -3 4 -11 2 -18
-3 -8 -7 -19 0 -34 21 -18 24 -25 28 -32 18 -7 -11 -9 -11 -9 2 0 8 6 21 13
29 6 8 2 6 -10 -4 -13 -11 -23 -14 -23 -8 0 7 -7 12 -15 12 -8 0 -15 -4 -15
-10 0 -5 6 -10 14 -10 20 0 37 -25 30 -44 -4 -10 -13 -15 -20 -12 -8 3 -14 2
-14 -3 0 -8 282 -20 509 -22 108 -1 257 -14 201 -18 -167 -11 -335 -11 -649
-2 -206 6 -376 10 -378 8 -4 -5 41 -311 73 -497 79 -453 146 -702 284 -1045
75 -188 97 -233 145 -301 51 -71 92 -101 255 -184 90 -46 236 -157 305 -232
31 -34 83 -100 114 -147 57 -86 105 -131 218 -203 67 -44 189 -133 213 -157
80 -79 121 -200 100 -299 -15 -68 -27 -76 -101 -69 -72 6 -144 49 -196 118
-35 46 -40 71 -20 105 37 64 37 68 3 32 -72 -75 -32 -156 117 -243 31 -18 45
-31 39 -37 -15 -15 -88 1 -124 28 -18 13 -45 32 -60 41 -16 10 -34 32 -42 48
-8 17 -24 36 -36 43 -11 7 -34 35 -51 62 -17 28 -35 48 -39 45 -12 -7 -36 64
-39 111 0 14 -5 22 -11 19 -6 -4 -10 12 -10 39 0 45 -15 63 -23 29 -3 -14 -6
-12 -11 8 -4 15 -18 32 -32 39 -13 8 -24 21 -24 30 0 13 -7 16 -29 12 -23 -3
-30 1 -36 20 -4 12 -6 31 -5 41 1 9 -2 17 -7 16 -21 -4 -31 3 -42 27 -7 16
-17 24 -25 21 -9 -4 -16 3 -20 15 -4 17 -8 19 -19 9 -8 -6 -22 -8 -32 -5 -10
4 -21 1 -26 -7 -7 -10 -9 -6 -8 16 2 46 0 59 -8 51 -5 -4 -8 -11 -9 -14 0 -4
-4 -15 -8 -25 -5 -10 -3 -23 4 -32 7 -8 10 -26 8 -40 -3 -14 -1 -28 3 -31 5
-3 9 5 9 18 l0 23 15 -25 c27 -47 28 -53 17 -71 -8 -13 -8 -19 0 -21 6 -2 12
-17 14 -33 2 -17 5 -50 8 -75 2 -25 6 -52 9 -60 3 -8 5 -22 5 -30 0 -8 3 -49
6 -90 3 -41 6 -97 7 -125 2 -27 6 -52 10 -55 5 -3 10 -21 11 -40 2 -19 10 -40
18 -46 12 -10 12 -14 0 -30 -14 -16 -13 -17 3 -11 12 5 17 1 17 -13 0 -11 5
-20 10 -20 6 0 10 -9 10 -19 0 -11 5 -21 11 -23 7 -2 13 -19 14 -36 3 -38 32
-75 53 -67 11 4 12 -2 7 -28 -3 -17 -3 -27 2 -21 10 14 72 23 79 12 3 -5 13
-3 21 4 12 10 17 9 27 -5 10 -12 15 -14 24 -5 9 9 12 8 12 -5 0 -10 5 -14 15
-11 8 4 15 1 15 -6 0 -6 4 -9 9 -6 5 3 20 -3 34 -14 14 -11 32 -20 40 -20 8 0
17 -13 20 -29 4 -17 14 -30 27 -34 13 -3 18 -11 14 -20 -3 -9 8 -28 26 -47 22
-23 28 -35 20 -40 -8 -5 -5 -12 11 -24 21 -14 19 -21 -5 -17 -5 1 -6 -7 -3
-18 3 -15 1 -18 -11 -14 -12 5 -14 1 -10 -15 8 -28 -19 -53 -33 -31 -8 12 -10
12 -18 -1 -9 -12 -12 -12 -28 0 -10 8 -28 21 -41 27 -73 42 -81 47 -161 126
-27 26 -55 47 -61 47 -7 0 -9 7 -6 16 4 11 -1 18 -14 21 -11 3 -20 12 -20 19
0 8 -7 17 -15 20 -8 4 -15 12 -15 20 0 7 -11 16 -24 20 -14 3 -49 32 -78 63
-29 31 -61 60 -71 64 -9 3 -17 16 -17 27 0 11 -6 20 -14 20 -7 0 -16 14 -19
30 -4 18 -13 30 -22 30 -25 0 -45 24 -34 41 13 20 12 23 -21 57 -18 19 -30 43
-30 58 0 22 -2 25 -15 14 -13 -11 -15 -8 -15 14 0 15 -7 34 -15 42 -8 9 -15
32 -15 52 0 40 -8 57 -27 57 -14 0 -18 14 -5 16 16 1 21 29 11 59 -8 20 -14
28 -19 20 -6 -9 -9 -9 -15 0 -4 6 0 17 8 23 22 18 31 67 12 67 -18 0 -29 41
-22 80 8 36 -3 131 -14 125 -4 -3 -10 -1 -14 5 -3 5 -2 10 2 10 5 0 10 11 11
25 3 45 -16 26 -23 -22 -4 -31 -3 -49 4 -51 14 -5 14 -49 1 -57 -6 -4 -10 5
-10 19 0 14 -4 26 -10 26 -5 0 -10 7 -10 15 0 8 -4 15 -10 15 -5 0 -10 5 -10
11 0 12 -25 39 -35 39 -4 0 -4 -7 -1 -16 3 -8 2 -12 -4 -9 -6 3 -10 13 -10 21
0 8 -4 14 -10 14 -5 0 -10 12 -10 27 0 20 -3 24 -11 16 -18 -18 -59 14 -59 46
0 21 -2 23 -11 11 -9 -12 -10 -10 -6 8 4 15 -1 27 -13 34 -10 6 -16 17 -14 23
3 7 -2 18 -11 25 -8 7 -15 21 -15 30 0 10 -5 20 -12 22 -7 3 -13 15 -14 29 -1
13 -6 35 -11 49 -6 14 -14 44 -18 68 -4 23 -10 42 -15 42 -4 0 -18 27 -30 60
-13 34 -31 65 -42 71 -12 6 -17 17 -14 27 3 9 -1 30 -9 46 -8 15 -15 34 -15
41 0 7 -11 29 -25 49 -14 20 -25 42 -25 48 0 6 -12 27 -27 46 -15 20 -21 32
-15 28 6 -4 1 12 -12 35 -14 24 -21 50 -18 62 4 16 2 19 -11 14 -12 -5 -19 3
-26 30 -6 20 -8 40 -5 45 3 5 -4 12 -16 15 -15 4 -20 11 -17 24 3 11 1 19 -4
19 -5 0 -9 6 -9 13 0 6 -7 25 -15 41 -8 15 -17 40 -20 55 -2 14 -9 27 -15 29
-5 2 -8 8 -5 12 7 11 -36 110 -47 110 -4 0 -8 10 -8 23 0 12 -14 60 -30 106
-17 46 -30 93 -30 105 0 12 -4 26 -9 32 -10 10 -37 92 -56 167 -7 29 -18 67
-23 85 -6 19 -7 30 -1 27 5 -4 9 -1 9 4 0 6 -4 11 -8 11 -9 0 -24 58 -42 160
-16 97 -40 219 -52 275 -6 27 -12 58 -13 70 -1 11 -3 20 -4 20 -3 0 -9 29 -15
75 -3 19 -13 76 -21 125 -9 50 -18 104 -20 120 -2 17 -4 30 -5 30 -3 0 -13 92
-13 122 0 18 -4 30 -9 27 -14 -9 -9 10 9 36 15 22 15 23 1 12 -29 -23 -59
-103 -65 -171 -15 -184 130 -824 285 -1256 58 -161 199 -503 295 -717 88 -197
82 -160 137 -773 50 -551 75 -798 85 -842 6 -28 50 -51 108 -59 42 -6 44 -8
81 -81 44 -86 109 -161 204 -235 37 -28 85 -68 108 -87 172 -151 161 -146 324
-146 135 0 135 0 180 -31 95 -66 139 -67 420 -9 354 72 347 69 495 220 55 56
114 112 130 124 l30 21 -83 -6 c-70 -6 -85 -4 -101 10 -11 10 -27 19 -37 20
-11 2 -21 15 -25 32 -15 58 -74 687 -204 2159 -113 1287 -105 1223 -157 1259
-22 16 -22 16 18 16 48 0 68 -18 83 -76 13 -47 48 -389 91 -879 31 -348 45
-479 76 -670 9 -55 16 -105 17 -112 0 -7 4 -10 9 -7 4 3 8 1 8 -3 0 -17 149
-821 188 -1013 22 -107 42 -210 45 -227 l7 -33 -51 0 c-30 0 -63 -7 -81 -17
l-30 -18 6 -80 c13 -163 16 -174 45 -177 14 -2 24 -7 21 -13 -3 -5 -13 -9 -23
-8 -16 3 -18 -4 -15 -45 3 -47 3 -47 48 -59 34 -8 39 -12 20 -13 -14 -1 -31
-2 -37 -1 -7 1 -13 -3 -13 -9 0 -7 18 -9 53 -5 118 14 345 46 380 54 44 10 68
36 62 66 -9 43 -35 188 -35 196 0 24 31 -8 43 -44 l14 -42 94 -17 c52 -9 118
-21 148 -27 53 -11 138 -14 96 -4 -11 3 -24 11 -28 19 -4 8 -17 14 -27 14 -11
0 -29 9 -39 19 -11 11 -21 17 -24 15 -2 -3 -4 22 -3 55 1 52 -2 61 -19 66 -17
6 -15 8 13 16 17 5 32 14 32 19 0 5 8 10 19 12 17 3 17 6 1 83 -9 44 -40 170
-68 280 -50 192 -521 2075 -605 2415 -22 91 -42 160 -44 154 -2 -6 66 -289
151 -630 85 -340 194 -776 241 -969 164 -664 235 -950 269 -1083 19 -73 37
-154 40 -180 l6 -47 -15 55 c-8 30 -31 118 -51 195 -20 77 -40 154 -45 170 -5
17 -24 98 -44 180 -20 83 -46 193 -60 245 -13 52 -56 223 -95 380 -39 157
-136 542 -215 855 -79 314 -155 617 -170 675 -14 58 -34 137 -45 175 -11 39
-31 117 -45 175 -24 100 -45 138 -68 123 -6 -4 -7 -1 -3 6 5 8 28 12 60 10 28
-1 59 2 69 6 12 5 24 2 33 -7 8 -7 37 -115 65 -238 28 -124 186 -765 351
-1425 164 -660 320 -1285 345 -1389 35 -141 49 -183 55 -167 9 26 -5 93 -68
326 -25 94 -49 186 -54 205 -33 137 -81 329 -93 368 -14 45 -47 175 -68 272
-5 25 -21 90 -35 145 -14 55 -39 156 -55 225 -49 205 -88 360 -110 440 -12 41
-25 93 -29 115 -11 53 -104 420 -130 515 -11 41 -29 116 -40 165 -11 50 -33
142 -50 205 -17 63 -33 129 -36 145 l-4 30 177 0 c125 0 184 4 198 12 16 11
-18 12 -182 10 -111 -1 -200 0 -197 2 2 2 -1 10 -7 17 -9 11 33 13 227 13 151
0 241 4 248 11 7 7 -58 10 -210 11 -120 1 -228 2 -239 3 -11 1 -29 3 -41 4
-11 1 -37 18 -57 37 l-37 36 318 -6 317 -6 46 -182 c42 -166 85 -340 274
-1122 87 -362 270 -1124 307 -1280 16 -71 53 -220 80 -330 51 -204 58 -267 38
-304 -7 -13 -9 -46 -6 -84 5 -59 5 -61 -10 -34 -8 15 -19 27 -24 27 -12 0 -12
-3 0 -34 5 -14 5 -28 1 -31 -5 -2 -11 5 -14 16 -3 12 -10 18 -16 14 -6 -3 -9
-16 -5 -29 3 -15 -1 -27 -13 -36 -14 -11 -16 -11 -6 -1 9 11 9 20 -3 42 -20
39 -26 36 -18 -7 5 -27 4 -35 -5 -30 -6 4 -11 16 -11 27 0 11 -5 17 -10 14 -6
-3 -10 -17 -10 -29 0 -13 -8 -30 -17 -37 -16 -12 -17 -12 -7 1 9 11 9 22 1 40
-10 24 -11 24 -16 -14 -4 -23 -12 -41 -21 -43 -12 -4 -12 -3 -1 5 10 7 11 14
2 31 -15 27 -30 19 -24 -13 3 -13 1 -26 -4 -29 -4 -3 -9 5 -9 18 -1 13 -9 34
-18 46 -16 23 -16 23 -16 2 0 -25 -15 -32 -59 -29 -34 2 -46 -7 -53 -39 -3
-16 -9 -11 -26 25 -12 25 -20 37 -17 28 3 -13 -3 -20 -20 -24 -19 -5 -25 -13
-25 -32 0 -28 -16 -20 -22 11 -5 27 -23 16 -20 -13 2 -24 2 -24 -13 -6 -8 11
-15 23 -15 28 0 4 -4 8 -10 8 -19 0 -11 -59 9 -70 33 -17 199 -12 299 10 150
33 273 81 310 121 27 29 28 69 2 92 -25 21 -25 26 5 62 15 19 24 25 25 15 0
-12 2 -13 9 -1 5 8 7 -4 4 -33 -5 -42 -3 -48 16 -53 11 -3 21 -12 21 -19 0
-16 16 -19 25 -4 3 6 1 10 -4 10 -6 0 -11 4 -11 10 0 5 6 7 14 4 8 -3 24 4 35
15 28 28 39 26 51 -5 10 -26 23 -28 75 -8 11 5 18 0 22 -14 5 -19 44 -38 71
-33 6 1 12 -8 12 -21 0 -17 3 -19 12 -10 18 18 34 14 52 -13 11 -17 14 -31 8
-43 -12 -21 -5 -42 14 -42 9 0 14 -11 14 -28 0 -16 3 -32 7 -36 4 -4 6 -26 5
-49 -2 -31 0 -38 7 -27 9 13 11 12 12 -5 0 -11 6 -1 13 22 35 112 94 153 217
153 41 0 171 -11 289 -25 617 -70 1173 -60 1667 30 299 55 586 138 785 228
l57 26 30 -25 c63 -52 113 -196 231 -659 79 -309 139 -573 211 -924 46 -230
63 -345 144 -1021 33 -271 52 -382 114 -666 65 -297 71 -337 71 -471 0 -210
-51 -382 -203 -682 -152 -301 -162 -383 -60 -492 42 -45 45 -54 18 -50 -5 1
-2 -5 8 -13 21 -16 212 -64 387 -96 110 -20 331 -76 415 -105 147 -50 556
-179 636 -199 206 -53 383 -67 577 -45 110 12 140 23 122 44 -10 12 -7 21 13
45 14 16 29 39 32 51 6 18 12 20 39 15 199 -41 637 -68 738 -47 59 13 80 27
58 41 -9 6 -8 14 5 34 18 26 17 27 -11 58 -16 16 -65 58 -109 91 -96 74 -111
87 -94 87 9 0 8 4 -1 15 -7 8 -14 34 -15 58 -2 23 -4 47 -6 52 -4 16 12 65 22
65 5 0 9 6 9 13 0 7 14 26 31 43 26 25 38 29 88 29 l58 0 -21 27 c-11 15 -41
37 -66 49 -57 27 -145 21 -172 -12 -10 -12 -18 -19 -18 -16 0 2 -18 -13 -40
-35 -24 -25 -40 -50 -40 -64 0 -13 -4 -24 -10 -24 -5 0 -10 8 -10 19 0 15 -10
19 -47 24 -27 3 -56 1 -65 -4 -12 -7 -18 -6 -18 1 0 6 7 13 15 16 21 8 19 26
-2 22 -25 -4 -43 10 -37 27 3 7 -4 18 -15 25 -14 7 -21 7 -21 0 0 -18 -18 -11
-23 10 -4 14 0 20 11 20 15 0 15 2 2 10 -11 7 -19 5 -27 -7 -7 -9 -15 -14 -18
-11 -3 3 1 11 10 18 23 19 18 31 -9 24 -13 -3 -27 -1 -31 6 -11 17 3 24 20 10
22 -18 19 -4 -4 19 -11 11 -32 21 -48 23 -22 2 -30 10 -37 35 -9 28 -14 32
-39 29 -31 -4 -50 20 -27 34 10 6 9 9 -1 12 -8 3 -20 -1 -27 -9 -7 -7 -19 -13
-25 -13 -7 0 -6 5 3 11 12 9 11 9 -5 3 -11 -4 -37 -8 -57 -10 -20 -1 -52 -7
-71 -13 -19 -6 -43 -9 -53 -6 -14 5 -13 3 4 -7 21 -13 20 -14 -18 -15 -22 -1
-38 2 -35 7 3 4 -4 6 -15 3 -11 -3 -22 -9 -25 -13 -3 -5 5 -6 17 -2 14 3 19 1
14 -6 -3 -6 -19 -13 -35 -17 -15 -3 -37 -14 -48 -24 -10 -10 -36 -21 -56 -25
-20 -4 -37 -10 -36 -14 0 -4 43 -42 95 -86 74 -61 93 -83 89 -97 -4 -11 -2
-19 4 -19 6 0 11 5 11 10 0 14 47 -16 89 -57 36 -35 33 -42 -9 -18 -14 8 -49
14 -77 15 -53 0 -133 -25 -133 -41 0 -5 -6 -9 -14 -9 -8 0 -17 -7 -20 -16 -3
-8 -10 -12 -16 -9 -5 3 -7 0 -4 -8 3 -8 1 -18 -5 -22 -6 -3 -11 -30 -11 -59 0
-78 46 -162 120 -220 63 -50 79 -85 48 -105 -25 -16 -148 -4 -142 14 3 7 -6
15 -21 19 -20 5 -25 11 -20 24 3 9 3 13 -1 9 -14 -14 -44 26 -44 58 0 25 -4
32 -17 31 -14 -1 -17 9 -19 54 0 35 4 59 12 65 11 8 9 15 -7 35 l-20 25 -16
-22 c-19 -28 -33 -29 -33 -3 0 19 -32 60 -47 60 -4 0 -2 -5 5 -12 18 -18 15
-28 -8 -28 -13 0 -20 7 -20 19 0 11 -4 23 -10 26 -5 3 -10 17 -10 31 0 15 -6
24 -15 24 -8 0 -15 7 -15 15 0 8 -7 15 -16 15 -14 0 -16 8 -11 41 4 29 1 46
-9 56 -8 8 -14 24 -14 35 0 30 32 128 42 128 4 0 8 5 8 10 0 7 -7 7 -21 0 -29
-16 -35 -5 -10 17 28 23 27 35 -2 24 -28 -11 -133 -25 -164 -23 -13 1 -23 -2
-23 -7 0 -5 -19 -12 -43 -15 -25 -4 -51 -15 -61 -27 -13 -16 -23 -19 -44 -13
-15 4 -39 8 -54 7 -30 0 -35 6 -16 25 18 18 5 23 -32 12 -34 -10 -73 1 -51 14
20 13 11 28 -14 24 -17 -4 -25 -1 -25 9 0 9 -6 13 -15 9 -9 -3 -15 0 -15 9 0
8 -7 15 -15 15 -7 0 -18 6 -22 14 -4 7 -18 18 -30 25 -12 6 -25 20 -28 31 -3
11 -11 20 -16 20 -6 0 -7 -4 -4 -10 3 -5 -3 -10 -15 -10 -12 0 -19 4 -15 10
10 16 -34 52 -55 45 -14 -4 -19 0 -22 17 -2 17 -9 22 -26 21 -19 -2 -21 -1
-10 17 7 10 9 23 4 27 -4 4 -12 0 -17 -9 -6 -10 -19 -23 -31 -29 -22 -12 -23
-5 -2 46 6 17 5 18 -7 8 -17 -14 -92 -9 -97 6 -6 17 -39 13 -46 -5 -3 -8 -10
-13 -15 -10 -12 8 -31 -16 -40 -51 -5 -15 -14 -27 -21 -25 -7 2 -21 -5 -31
-14 -24 -21 -34 -13 -19 15 7 15 7 21 0 21 -14 0 -10 72 7 130 8 25 11 60 8
78 -3 17 -2 32 3 32 5 0 8 28 8 63 0 34 2 85 3 112 1 28 2 91 1 141 -1 50 1
101 5 113 3 11 3 21 -2 21 -11 0 -31 71 -39 140 -4 30 -10 60 -14 65 -4 6 -10
31 -13 58 -4 26 -15 59 -24 74 -10 15 -12 24 -5 20 16 -10 15 5 -1 46 -8 18
-12 37 -10 44 2 6 -1 14 -6 18 -6 3 -11 22 -11 41 0 19 -7 51 -15 70 -8 20
-13 40 -10 44 3 4 1 21 -5 36 -8 26 -14 66 -24 170 -1 16 -6 35 -9 41 -4 6 -1
14 5 16 10 4 10 8 -1 15 -10 7 -12 23 -9 56 3 25 3 48 0 51 -5 5 -8 43 -14
200 0 22 1 47 3 55 2 8 -1 14 -6 13 -7 -1 -11 33 -12 90 -2 119 -12 237 -24
258 -9 18 -32 188 -30 227 0 12 -4 22 -9 22 -7 0 -7 7 0 21 7 13 8 25 2 32 -5
7 -13 35 -17 62 -9 56 -9 53 -19 78 -5 9 -6 33 -4 52 2 22 -1 36 -9 39 -7 3
-13 16 -13 28 0 13 -7 55 -16 93 -8 39 -18 99 -21 135 -3 36 -9 70 -14 76 -5
6 -7 18 -3 27 3 8 -2 29 -11 46 -8 17 -15 48 -15 69 1 91 1 92 -17 92 -11 0
-14 3 -7 8 16 10 14 39 -6 102 -9 30 -18 86 -19 125 -1 41 -7 72 -14 77 -8 5
-12 36 -12 88 0 57 -3 79 -12 76 -16 -6 -24 18 -17 52 3 16 -1 53 -10 82 -9
30 -16 65 -16 80 0 14 -9 34 -21 43 -22 20 -21 43 3 41 13 -1 14 5 6 35 -6 20
-19 54 -30 76 -12 26 -18 57 -17 87 2 26 -3 53 -10 61 -13 17 1 33 19 22 15
-9 43 23 36 40 -3 8 -1 15 4 15 5 0 22 12 38 28 16 15 53 45 82 67 158 121
320 262 320 278 -1 7 -6 6 -13 -4 -7 -9 -26 -23 -43 -32 -16 -8 -52 -35 -80
-59 -44 -39 -68 -57 -163 -120 -14 -10 -37 -22 -50 -28 -13 -6 -32 -21 -43
-35 -10 -13 -24 -22 -31 -19 -16 6 -103 -42 -110 -60 -3 -8 -20 -17 -39 -21
-18 -4 -51 -19 -73 -33 -22 -14 -55 -26 -72 -26 -18 -1 -33 -6 -33 -12 0 -6
-10 -11 -22 -10 -30 1 -30 27 0 42 19 9 20 13 8 17 -9 4 -16 2 -16 -3 0 -6 -7
-10 -15 -10 -8 0 -15 5 -15 10 0 6 -4 10 -10 10 -5 0 -10 -7 -10 -16 0 -8 -4
-12 -10 -9 -25 16 -6 -36 21 -58 26 -20 28 -25 14 -30 -9 -4 -13 -3 -10 3 3 5
-3 14 -14 19 -15 8 -23 7 -34 -3 -8 -9 -19 -11 -27 -6 -10 6 -7 10 13 15 15 4
27 11 27 15 0 9 -42 21 -49 15 -2 -3 1 -5 8 -5 7 0 9 -5 6 -10 -4 -7 -13 -7
-26 0 -16 9 -19 7 -19 -10 0 -11 -7 -20 -15 -20 -8 0 -15 -5 -15 -11 0 -5 -8
-9 -17 -8 -10 1 -31 -3 -46 -10 -16 -6 -33 -9 -38 -5 -5 3 -21 -1 -36 -10 -61
-32 -106 -48 -124 -43 -10 3 -19 1 -19 -4 0 -5 -7 -9 -15 -9 -21 0 -19 16 7
40 12 11 18 20 12 20 -15 0 -30 -14 -37 -32 -4 -12 -17 -18 -34 -18 l-28 1 28
25 29 25 -44 -7 c-23 -4 -46 -12 -50 -17 -3 -6 -22 -11 -42 -11 -19 -1 -38 -5
-42 -9 -4 -4 -19 -7 -33 -6 -23 0 -24 1 -6 9 15 6 6 9 -35 11 -53 4 -100 -7
-100 -23 0 -5 -5 -8 -11 -8 -5 0 -7 5 -3 12 5 8 2 9 -12 3 -25 -11 -196 -13
-181 -2 7 5 0 6 -15 3 -34 -8 -37 6 -5 22 15 9 32 9 54 3 21 -6 46 -6 69 0 20
6 43 8 51 5 9 -4 13 -1 11 6 -3 7 -14 14 -26 16 -12 2 -22 8 -22 14 0 7 -5 6
-15 -2 -20 -17 -36 -3 -29 26 6 22 3 24 -26 24 -18 0 -29 4 -25 10 11 17 60
11 78 -10 16 -19 16 -20 -1 -21 -9 0 -12 -3 -5 -5 7 -3 20 -1 30 5 10 6 12 11
6 11 -7 0 -13 4 -13 10 0 5 12 7 28 4 15 -3 45 -1 67 4 40 10 39 10 -20 10
-82 0 -146 12 -138 24 6 11 -7 9 -85 -13 -32 -9 -49 -9 -65 0 -12 6 -38 12
-57 13 -27 2 -35 -1 -35 -14 0 -25 -7 -27 -45 -18 -23 5 -27 8 -13 9 17 1 24
9 29 36 8 46 0 65 -25 58 -12 -3 -21 -1 -21 6 0 13 -40 14 -72 2 -16 -6 -37
-3 -68 9 l-45 18 70 -5 c59 -5 73 -3 85 12 13 16 11 17 -35 15 -74 -4 -85 -2
-92 18 -4 9 -11 20 -16 23 -5 4 -9 18 -9 32 0 19 -5 23 -19 20 -11 -3 -34 2
-53 11 -42 20 -46 20 -46 1 0 -18 -4 -18 -28 -6 -9 5 -32 16 -50 23 -18 7 -30
18 -28 25 6 16 -5 25 -18 14 -6 -5 -29 -14 -51 -20 -31 -8 -44 -8 -62 4 -12 8
-29 15 -37 15 -10 0 -13 6 -9 15 3 9 2 15 -3 13 -14 -3 -57 13 -86 34 -16 11
-32 17 -38 13 -17 -10 -89 15 -100 35 -6 11 -23 23 -37 26 -25 7 -60 35 -133
106 -15 15 -39 32 -54 38 -16 6 -26 17 -26 30 0 22 -30 44 -72 54 -16 4 -28
10 -28 15 0 10 106 9 116 -2 4 -4 1 -7 -6 -7 -10 0 -9 -5 3 -18 10 -10 14 -22
10 -25 -3 -4 1 -7 10 -7 8 0 22 -6 29 -13 7 -7 24 -18 38 -24 14 -6 19 -12 13
-12 -7 -1 -13 -6 -13 -12 0 -6 6 -9 14 -6 8 3 34 -4 58 -16 l43 -21 -30 -8
c-25 -6 -24 -7 9 -3 35 4 88 35 59 35 -6 0 -28 8 -49 17 -22 9 -43 17 -49 17
-5 1 -11 10 -13 22 -4 29 37 47 63 28 29 -21 42 -17 18 7 -11 12 -32 22 -46
22 -14 1 -23 6 -19 11 3 5 -1 7 -9 4 -8 -3 -31 11 -54 33 -22 21 -52 41 -67
44 -14 4 -29 12 -32 20 -7 19 75 -18 146 -66 57 -39 57 -39 46 -11 -7 15 -17
34 -24 42 -7 8 -16 28 -20 44 -7 29 -6 29 27 22 18 -3 42 -15 54 -25 11 -10
31 -22 45 -26 14 -4 31 -12 38 -18 7 -5 30 -13 52 -17 31 -6 40 -4 40 6 0 8
-4 14 -8 14 -11 0 -72 55 -72 64 0 5 7 6 15 3 8 -4 17 -2 20 2 3 5 -2 12 -11
15 -9 4 -14 9 -11 12 3 3 -8 19 -24 36 -16 17 -27 34 -24 37 2 4 -9 15 -25 24
-16 10 -27 23 -24 30 3 8 -12 22 -33 33 -137 74 -165 96 -146 115 9 9 21 3 47
-25 20 -20 36 -32 36 -27 0 5 8 11 18 13 13 3 10 8 -15 23 -21 12 -31 25 -29
35 3 8 6 35 7 60 3 42 -1 49 -42 90 -25 25 -60 56 -79 70 -18 14 -45 37 -58
53 -14 15 -31 27 -39 27 -15 0 -60 30 -101 67 -13 12 -33 25 -43 28 -11 4 -19
11 -19 16 0 5 -7 9 -15 9 -8 0 -15 3 -15 8 0 4 -13 13 -28 20 -16 6 -38 21
-50 32 -12 11 -24 20 -27 20 -7 0 -20 11 -73 58 -20 18 -49 41 -64 50 -15 9
-28 20 -28 24 0 4 -6 8 -13 8 -13 0 -25 8 -105 73 -26 20 -54 37 -63 37 -8 0
-26 11 -39 25 -15 16 -30 23 -41 20 -10 -4 -26 2 -36 12 -10 10 -26 17 -35 15
-20 -4 -67 27 -68 44 0 25 -70 25 -70 0 0 -7 -4 -6 -9 2 -4 8 -12 12 -17 11
-5 -2 -15 9 -22 24 -7 15 -17 27 -22 27 -5 0 -16 13 -25 29 -8 16 -23 32 -33
35 -10 4 -25 17 -32 31 -7 13 -18 23 -24 22 -6 -1 -10 3 -9 10 2 7 -3 10 -10
8 -19 -8 -41 33 -26 51 6 8 8 18 4 22 -4 4 -10 1 -12 -6 -3 -6 -9 -10 -13 -7
-5 3 -7 12 -3 20 3 9 -1 15 -11 15 -9 0 -16 5 -16 11 0 6 -10 25 -23 42 -13
18 -32 50 -43 72 -10 22 -27 51 -36 64 -10 13 -15 27 -12 32 3 5 0 9 -5 9 -6
0 -11 5 -11 10 0 6 -9 19 -20 30 -11 11 -26 40 -32 65 -7 25 -18 45 -25 45 -6
0 -16 7 -21 16 -6 11 -11 13 -16 5 -9 -13 -46 8 -46 26 0 7 -7 10 -15 7 -11
-5 -15 1 -15 20 0 14 -5 25 -11 23 -6 -1 -18 18 -27 42 -19 48 -37 62 -45 34
-3 -10 -5 -2 -4 17 1 25 -2 35 -13 35 -8 1 -14 7 -12 13 1 7 -5 20 -14 30 -15
15 -16 14 -9 -7 36 -116 96 -352 235 -941 23 -96 49 -183 58 -193 8 -9 12 -20
9 -24 -4 -3 -7 0 -7 7 0 7 -2 11 -5 8 -3 -3 15 -95 40 -204 25 -110 60 -260
76 -334 42 -189 190 -826 249 -1065 26 -110 51 -218 55 -240 l6 -40 -15 30
c-8 17 -40 134 -71 260 -117 485 -147 610 -225 940 -45 187 -103 430 -129 540
-27 110 -61 254 -76 320 -15 66 -52 221 -82 345 -30 124 -56 234 -59 245 -15
72 -40 155 -46 155 -4 0 -8 7 -8 15 0 9 -9 25 -20 37 -11 12 -20 30 -20 40 0
10 -5 18 -11 18 -5 0 -7 5 -3 12 4 6 0 16 -9 23 -10 7 -21 36 -27 65 -13 69
-13 73 5 66 17 -6 20 5 4 21 -17 17 -7 58 13 57 16 -2 16 0 3 19 -8 12 -15 36
-15 54 0 21 -5 32 -12 30 -7 -1 -12 6 -12 16 2 20 -16 23 -35 5 -10 -11 -11
-10 -6 5 4 10 2 17 -4 17 -6 0 -11 -4 -11 -8 0 -4 -9 -8 -20 -9 -18 -2 -18 0
-6 13 20 19 29 68 18 91 -24 47 -31 71 -30 106 1 20 6 37 10 37 4 0 8 11 8 25
0 22 -9 30 -32 26 -13 -2 -9 27 4 31 8 3 5 16 -11 41 -13 21 -21 44 -18 51 3
7 -1 25 -8 40 -8 14 -16 53 -19 85 -5 49 -2 62 14 81 20 23 19 58 -3 71 -6 4
-1 13 12 20 11 8 21 24 21 37 0 13 5 32 10 42 9 16 8 19 -7 13 -10 -3 -23 -10
-29 -14 -16 -13 -25 1 -13 23 6 10 7 27 4 38 -4 13 2 29 20 47 14 16 25 35 24
43 -5 57 18 109 42 95 5 -4 9 0 9 9 0 8 -6 17 -12 20 -10 5 -10 7 0 12 6 3 12
12 12 20 0 8 5 14 11 14 5 0 8 4 5 8 -2 4 -1 14 4 22 5 9 5 19 -2 27 -17 21
-1 41 36 49 28 5 36 11 36 28 0 18 -2 19 -11 6 -9 -12 -10 -12 -5 3 3 10 6 21
6 23 0 2 13 4 30 4 23 0 28 3 23 17 -5 13 -2 15 15 11 15 -4 19 -2 15 8 -3 8
-9 14 -15 14 -5 0 -6 5 -3 10 4 6 16 10 28 8 16 -2 21 2 19 14 -1 9 6 22 17
27 11 6 22 20 26 31 4 12 22 24 48 31 41 11 41 12 17 21 l-25 9 33 15 c18 7
31 18 27 24 -3 6 2 13 12 17 10 3 26 13 36 21 14 13 17 13 17 1 1 -10 5 -8 16
6 12 16 18 18 34 7 28 -17 31 -15 24 16 -4 15 -3 24 1 20 4 -4 18 4 32 18 13
13 31 24 40 24 13 0 14 3 5 12 -9 9 -6 19 14 46 22 28 25 38 16 57 -9 19 -7
27 13 45 13 12 28 19 34 15 6 -3 11 -1 11 6 0 7 3 10 6 6 3 -3 -1 -20 -10 -38
-9 -18 -16 -34 -16 -36 0 -7 91 1 96 9 3 4 0 8 -7 8 -7 0 -10 3 -6 6 15 16 41
-17 44 -57 3 -24 9 -46 14 -50 6 -3 3 -11 -6 -19 -24 -20 -19 -73 11 -105 18
-19 22 -30 14 -35 -8 -5 -5 -12 10 -23 16 -11 20 -21 15 -38 -6 -17 -4 -21 9
-16 8 3 18 2 21 -3 4 -6 15 -10 26 -10 20 0 42 39 41 73 0 9 3 17 7 17 11 0
31 80 31 124 0 20 5 36 10 36 6 0 10 9 10 19 0 11 5 23 10 26 6 3 10 21 10 38
1 18 8 50 16 72 9 22 15 55 15 72 -1 29 23 105 50 156 6 10 7 26 4 36 -3 11 0
21 8 24 8 3 22 36 32 74 10 37 24 77 32 88 7 11 13 28 13 37 0 10 10 35 23 56
13 20 35 62 49 93 15 31 41 73 57 92 17 19 31 37 31 40 0 8 80 96 105 116 10
9 34 31 53 49 19 17 38 32 43 32 6 0 30 20 56 45 25 25 49 45 54 45 4 0 25 16
46 35 21 19 44 33 50 30 7 -2 25 7 39 20 15 14 32 25 39 25 7 0 27 14 44 31
19 18 39 28 48 25 18 -7 71 17 102 45 12 12 28 18 36 15 7 -2 18 1 24 8 6 8
51 28 99 45 48 18 102 39 120 47 18 8 44 14 58 14 14 0 37 9 50 19 14 11 44
22 67 26 23 4 63 14 89 22 26 8 55 12 64 9 9 -4 22 -2 29 4 6 5 36 12 66 15
115 11 206 26 241 40 37 14 52 14 288 0 24 -1 60 2 78 7 26 7 42 5 68 -7 19
-9 42 -15 52 -14 25 4 100 -11 140 -28 19 -8 37 -12 39 -9 3 3 18 -4 34 -15
15 -10 31 -18 36 -17 8 2 86 -40 133 -72 147 -100 195 -130 198 -121 2 6 18
11 35 11 28 0 29 1 12 14 -27 19 -14 41 48 80 94 60 227 225 227 282 0 9 6 30
14 47 22 50 27 131 10 155 -8 12 -13 25 -12 29 3 8 -11 31 -71 122 -143 214
-458 322 -848 291 l-141 -12 -66 66 c-100 99 -220 150 -526 224 -186 45 -310
62 -449 61 -75 -1 -159 -5 -188 -10z m653 -217 c18 -12 65 -110 55 -117 -5 -3
-16 -2 -25 1 -23 9 -20 -7 15 -91 18 -42 30 -77 28 -78 -2 -2 -29 -14 -59 -26
-30 -13 -63 -30 -73 -39 -33 -29 -59 -1 -107 116 -46 112 -55 125 -81 118 -9
-2 -22 -1 -27 3 -11 7 -52 95 -52 112 0 11 310 12 326 1z m-402 -58 c30 -54
32 -70 11 -82 -13 -7 -10 -16 22 -58 21 -27 45 -62 54 -79 12 -21 26 -31 49
-35 28 -4 35 -12 51 -54 10 -28 17 -51 16 -52 -33 -27 -236 -79 -268 -69 -9 3
-24 20 -32 37 l-15 32 -11 -40 c-15 -55 -19 -58 -85 -83 l-60 -22 -27 20 c-16
12 -31 21 -35 21 -4 0 -13 8 -21 18 -12 15 -13 11 -11 -32 l3 -48 -75 -29
c-41 -16 -94 -38 -117 -49 -24 -11 -46 -20 -50 -20 -3 0 -14 -7 -23 -15 -16
-14 -19 -10 -44 45 l-27 61 30 28 c27 26 29 31 20 67 -5 21 -12 53 -15 69 -13
74 -13 72 -38 68 -21 -4 -27 2 -45 43 -26 59 -25 60 89 109 47 20 99 43 117
51 59 27 85 27 135 0 l47 -25 16 50 c9 27 18 49 21 49 2 0 52 13 111 29 99 27
138 36 170 40 6 0 23 -20 37 -45z m645 10 c68 -16 121 -34 132 -45 26 -26 35
-69 18 -80 -21 -13 -46 -11 -53 6 -4 10 1 15 14 15 17 0 18 3 8 25 -11 25 -69
49 -144 60 -16 2 -44 8 -61 14 -18 5 -33 6 -33 3 0 -18 32 -51 52 -54 16 -2
30 -18 45 -50 13 -27 25 -48 28 -48 4 0 3 5 -1 11 -4 8 1 9 17 4 23 -7 23 -6
5 7 -17 14 -17 15 -2 21 9 4 14 3 11 -2 -3 -5 5 -13 17 -17 21 -7 20 -8 -17
-25 -56 -25 -59 -24 -83 25 -16 31 -30 45 -50 49 -26 5 -31 12 -72 96 -14 28
-22 29 169 -15z m-2197 -5696 c3 -7 0 -25 -7 -40 -9 -23 -13 -26 -24 -15 -11
10 -12 7 -6 -13 4 -14 14 -29 21 -33 8 -4 14 -17 14 -27 0 -11 7 -20 15 -20
10 0 15 10 15 30 0 23 -5 30 -19 30 -17 0 -18 3 -8 24 l12 25 37 -42 c21 -23
38 -45 38 -49 0 -20 18 -5 23 18 3 17 1 24 -8 21 -6 -3 -12 0 -13 6 0 7 -4 22
-7 35 -6 17 -4 21 7 17 20 -8 40 -69 33 -102 -5 -20 -4 -24 3 -14 8 11 19 4
55 -33 51 -52 62 -57 53 -21 -4 14 -3 25 2 25 14 0 49 -43 57 -70 5 -19 4 -21
-4 -10 -16 22 -13 6 6 -42 17 -43 51 -95 88 -134 11 -11 32 -35 47 -53 14 -18
31 -30 37 -26 6 3 11 1 11 -4 0 -6 5 -11 11 -11 6 0 9 9 6 20 -7 26 5 25 48
-2 37 -24 53 -50 36 -56 -6 -2 -12 -16 -12 -30 -2 -24 -2 -24 -6 -4 -2 12 -10
22 -16 22 -8 0 -8 3 1 9 10 6 7 12 -13 25 l-26 17 7 -28 c4 -15 11 -29 16 -31
4 -2 8 -12 8 -22 0 -10 9 -20 21 -23 12 -3 18 -10 14 -16 -3 -6 0 -11 8 -11 8
0 26 -9 40 -20 38 -30 43 0 6 41 -29 32 -37 63 -20 73 5 4 24 -12 41 -34 17
-22 38 -40 45 -40 7 0 24 -15 39 -34 14 -19 32 -40 39 -48 8 -7 22 -31 33 -53
10 -22 26 -47 36 -57 16 -16 25 -48 14 -48 -10 0 -76 74 -76 85 0 7 -15 18
-32 24 -18 6 -41 21 -50 34 -9 12 -19 19 -22 17 -7 -8 45 -65 72 -79 12 -6 22
-19 22 -27 0 -8 5 -12 10 -9 6 3 14 -5 19 -18 6 -14 15 -28 21 -32 6 -4 8 -16
5 -28 -5 -18 -4 -19 5 -7 9 13 12 12 25 -5 9 -11 22 -28 30 -38 19 -21 19 -23
0 -31 -9 -3 -20 4 -28 21 -9 16 -17 22 -21 14 -4 -6 -3 -11 2 -11 5 0 12 -10
15 -21 4 -15 11 -20 21 -16 9 4 16 3 16 -2 0 -4 12 -14 27 -22 32 -16 72 -59
73 -76 0 -6 -8 -14 -17 -16 -11 -3 -6 -5 11 -6 30 -1 55 -25 56 -53 0 -9 6
-19 13 -21 6 -3 -5 -6 -27 -6 l-39 -1 27 -21 c27 -21 34 -39 16 -39 -16 0 -61
51 -54 61 3 5 -5 25 -17 45 -19 31 -24 34 -36 22 -8 -8 -15 -31 -16 -51 -2
-32 -17 -67 -17 -39 0 18 -38 53 -45 42 -4 -6 -1 -10 6 -10 7 0 10 -3 7 -6 -4
-3 -16 0 -28 6 -20 11 -20 12 -4 24 16 12 16 13 -1 19 -9 4 -15 13 -12 21 3 8
-2 16 -14 19 -21 6 -27 -8 -6 -16 6 -3 1 -6 -13 -6 -14 0 -32 4 -40 9 -8 5
-11 10 -6 10 6 0 1 6 -9 14 -11 8 -25 12 -32 9 -8 -3 -13 3 -13 15 0 15 -11
25 -35 33 -32 12 -63 59 -50 78 2 4 -6 7 -18 7 -18 -1 -22 4 -20 29 2 22 0 26
-7 15 -9 -13 -10 -13 -10 0 -1 8 -6 4 -11 -9 -7 -18 -13 -21 -21 -13 -8 8 -8
15 2 27 7 8 10 19 6 23 -4 4 -12 -1 -17 -11 -12 -21 -29 -22 -29 -2 0 8 -5 15
-11 15 -5 0 -7 5 -4 10 3 6 18 10 33 10 23 1 25 3 12 13 -8 7 -21 23 -28 36
-15 25 -5 23 31 -7 15 -14 17 -13 17 1 0 10 -5 17 -11 17 -19 0 -51 43 -46 61
3 12 -3 19 -19 22 -16 3 -24 0 -24 -9 0 -12 -4 -12 -20 -2 -14 9 -19 20 -16
34 4 13 -4 31 -22 50 -15 17 -36 50 -46 75 -13 33 -27 49 -50 58 -17 7 -39 17
-48 22 -26 14 -29 11 -22 -17 l7 -27 -22 22 c-22 22 -28 51 -11 51 6 0 1 10
-10 23 -12 12 -31 43 -43 70 -12 26 -25 47 -29 47 -5 0 -8 6 -8 14 0 21 -26
40 -36 25 -5 -8 -19 2 -46 32 -21 24 -38 46 -39 49 -1 3 -2 19 -4 35 -4 44 -4
45 -15 45 -5 0 -10 -7 -10 -16 0 -13 -3 -14 -14 -5 -8 7 -12 20 -9 30 3 10 0
22 -6 25 -6 4 -11 11 -11 17 0 5 9 4 19 -3 11 -7 18 -15 15 -19 -2 -4 0 -10 6
-14 18 -11 11 21 -11 49 -24 31 -22 62 5 58 11 -2 15 1 11 8 -4 6 -4 18 -1 26
5 13 9 13 35 0 16 -9 31 -21 33 -28z m-2922 -53 c16 -8 37 -27 49 -43 16 -23
18 -35 11 -67 -5 -21 -18 -47 -29 -59 l-21 -20 -48 47 c-50 49 -82 58 -124 36
-19 -10 -19 -9 3 31 46 82 98 107 159 75z m916 -337 c33 -99 48 -207 41 -306
-9 -143 -30 -168 -104 -123 -29 19 -31 22 -22 58 19 84 -1 304 -37 397 -10 26
22 48 65 44 33 -3 35 -6 57 -70z m2888 -311 c3 -15 13 -27 22 -27 8 0 12 5 9
10 -3 6 5 10 18 10 17 0 37 -14 61 -42 20 -24 43 -51 51 -60 21 -25 19 -31 -5
-18 -14 7 -20 7 -20 0 0 -5 5 -10 10 -10 6 0 10 -6 10 -13 0 -8 11 -19 25 -25
14 -7 28 -19 31 -27 4 -8 10 -12 15 -9 5 3 9 -2 9 -10 0 -8 6 -13 13 -11 6 3
24 -13 39 -34 23 -32 25 -40 13 -45 -8 -3 -15 -1 -15 4 0 6 -7 10 -15 10 -8 0
-15 5 -15 10 0 6 -10 10 -22 9 l-23 0 23 -11 c22 -11 30 -28 12 -28 -5 0 -25
9 -45 20 -42 24 -65 26 -65 5 0 -8 4 -15 9 -15 5 0 11 -9 14 -20 3 -12 14 -20
26 -20 14 0 21 -6 21 -20 0 -11 -5 -20 -10 -20 -6 0 -18 9 -27 20 -10 11 -25
20 -35 20 -10 0 -18 5 -18 10 0 6 -6 10 -13 10 -18 0 -81 69 -72 78 4 4 10 1
13 -7 8 -24 51 -63 64 -59 25 9 18 29 -16 49 -20 11 -33 25 -30 31 3 5 -1 15
-9 21 -19 15 -60 87 -53 94 3 3 15 -4 27 -16 27 -25 44 -27 35 -5 -3 9 -6 22
-6 30 0 7 -6 11 -14 8 -16 -6 -86 72 -86 96 0 8 -8 22 -18 31 -9 8 -27 28 -40
43 -25 32 -41 30 -21 -3 19 -30 1 -40 -22 -12 -27 33 -24 49 13 59 28 7 35 4
78 -38 26 -25 50 -58 54 -73z m1032 -964 c15 -9 41 -12 80 -10 59 5 85 -6 76
-32 -4 -11 -6 -11 -14 0 -7 11 -11 11 -15 2 -7 -18 -38 -16 -57 2 -10 10 -17
12 -21 4 -8 -12 12 -28 81 -63 40 -21 57 -24 75 -17 13 5 18 10 11 10 -8 1
-10 9 -6 26 4 15 1 32 -6 40 -14 17 0 19 35 6 19 -8 19 -8 0 -20 -14 -8 -16
-14 -7 -17 6 -3 12 -13 12 -21 0 -11 6 -14 23 -8 12 3 29 6 37 5 8 0 27 -1 42
-1 15 0 30 -4 33 -9 4 -6 15 -10 26 -10 10 0 19 -7 19 -15 0 -8 -9 -15 -20
-15 -11 0 -20 -4 -20 -10 0 -5 8 -10 18 -10 14 0 15 -2 2 -10 -12 -8 -10 -10
8 -10 32 0 23 -22 -14 -33 -49 -14 -247 -14 -251 1 -3 6 -13 12 -24 12 -10 0
-19 5 -19 10 0 6 -9 10 -20 10 -13 0 -18 5 -14 15 4 9 0 15 -10 15 -9 0 -16 7
-16 15 0 8 6 15 14 15 8 0 17 7 20 16 4 11 2 15 -8 11 -10 -4 -13 -1 -10 7 3
8 -4 16 -16 19 -12 3 -19 10 -16 16 9 13 -31 34 -51 27 -24 -9 -50 2 -56 24
-3 10 -2 21 1 24 7 8 53 -5 78 -21z m4267 -5025 c43 -22 97 -105 97 -148 0
-11 4 -20 9 -20 9 0 31 -73 38 -133 3 -25 -1 -46 -11 -63 -9 -13 -14 -29 -10
-35 4 -7 -2 -7 -16 1 -20 11 -21 10 -15 -10 5 -16 4 -20 -5 -15 -9 5 -10 1 -5
-16 7 -23 7 -23 -8 -4 -8 10 -12 26 -9 33 3 10 -2 8 -16 -4 -26 -22 -27 -25
-7 -18 8 4 15 1 15 -6 0 -6 -4 -8 -10 -5 -5 3 -10 0 -10 -7 0 -9 -3 -9 -10 2
-9 14 -13 16 -45 19 -14 1 -153 131 -139 131 3 0 1 7 -6 15 -7 8 -10 15 -7 15
3 0 -8 27 -24 59 -49 103 -32 177 51 210 35 14 117 13 143 -1z m692 -41 c4
-62 30 -112 82 -155 25 -20 58 -48 75 -62 21 -18 31 -36 33 -63 2 -20 -1 -37
-6 -37 -6 0 -7 -5 -3 -12 5 -8 2 -9 -9 -5 -10 4 -17 1 -18 -6 0 -8 -2 -8 -5
-1 -3 6 -16 9 -30 6 -30 -5 -74 15 -74 35 0 9 -7 12 -18 9 -20 -7 -61 25 -81
62 -7 12 -18 22 -26 22 -15 0 -20 21 -8 34 4 4 6 26 5 49 -2 44 10 69 42 80
13 5 17 14 14 32 -3 14 -1 25 3 25 5 0 9 10 9 22 0 38 12 11 15 -35z"/>
<path d="M5360 13348 c-154 -67 -161 -71 -156 -92 3 -12 6 -25 6 -29 0 -5 13
-6 30 -2 26 6 31 3 41 -22 7 -15 13 -46 14 -68 2 -22 6 -64 10 -94 5 -46 3
-56 -15 -76 -15 -16 -19 -29 -14 -49 3 -14 10 -26 15 -26 5 0 42 17 82 37 71
36 77 39 96 42 6 0 9 9 8 19 -1 13 -8 18 -22 16 -12 -1 -22 3 -22 10 -1 21 -8
41 -18 48 -6 5 -6 8 2 8 6 0 15 -5 18 -11 5 -7 16 -2 31 12 l24 22 0 -22 c0
-12 -4 -20 -9 -17 -4 3 -16 -3 -25 -13 -11 -13 -14 -21 -7 -26 6 -3 11 -1 11
5 0 6 4 9 8 6 5 -3 15 6 22 19 11 21 11 30 0 52 -7 16 -13 31 -12 36 1 4 -2 7
-8 7 -6 0 -10 -4 -10 -10 0 -17 5 -25 13 -22 5 1 6 -2 2 -8 -3 -6 -11 -8 -16
-5 -5 3 -6 -1 -3 -9 3 -9 2 -16 -3 -16 -17 0 -23 13 -12 27 11 13 0 19 -26 13
-5 -1 -6 2 -2 7 5 4 13 9 18 9 22 3 22 6 -1 13 -40 11 -37 43 10 84 37 34 58
65 25 37 -20 -17 -40 -3 -24 17 15 18 19 52 7 59 -5 3 -7 2 -6 -3 2 -5 -7 -19
-19 -32 -12 -13 -20 -29 -16 -34 3 -6 1 -7 -6 -3 -6 4 -8 13 -4 19 4 7 0 7
-10 -1 -12 -10 -21 -11 -34 -3 -10 6 -13 11 -7 11 6 0 11 10 10 23 -1 14 4 22
15 21 9 -1 16 5 16 12 0 8 -1 14 -1 13 -1 0 -12 -5 -26 -11z"/>
<path d="M6068 11390 c-482 -122 -735 -618 -543 -1065 58 -136 201 -285 343
-358 137 -71 222 -92 377 -92 147 1 224 16 341 70 209 95 360 264 434 485 34
100 39 279 11 390 -41 165 -134 311 -266 417 -78 62 -152 102 -262 139 -108
37 -318 44 -435 14z m-240 -491 c28 -10 53 -39 33 -39 -5 0 -14 -13 -20 -30
-5 -16 -14 -30 -20 -30 -5 0 -13 -15 -16 -32 -4 -18 -13 -36 -19 -40 -7 -5 -7
-8 3 -8 11 0 11 -3 1 -15 -10 -12 -10 -15 1 -16 8 0 4 -4 -9 -10 -27 -10 -20
-29 11 -29 21 -1 21 -1 4 -14 -16 -12 -16 -14 -1 -20 12 -5 14 -9 5 -20 -9
-10 -8 -21 1 -42 6 -16 12 -33 12 -39 1 -5 8 -17 16 -25 8 -8 16 -24 18 -35 2
-11 12 -27 23 -37 10 -9 19 -19 19 -23 0 -4 16 -26 35 -50 22 -27 32 -46 25
-50 -10 -6 -50 -78 -50 -91 0 -15 39 29 50 57 16 37 27 37 35 -1 6 -26 9 -29
21 -19 17 14 19 12 28 -24 4 -19 3 -26 -3 -22 -6 3 -8 0 -5 -8 3 -10 -4 -17
-23 -22 -15 -3 -31 -12 -36 -18 -4 -7 -5 6 -2 28 l5 40 -12 -32 c-15 -38 -33
-59 -20 -23 5 14 12 39 16 55 l7 30 -26 -35 c-14 -19 -27 -33 -29 -30 -2 3
-14 -4 -27 -15 -18 -16 -14 -4 19 59 38 73 40 80 24 92 -9 8 -20 14 -23 14 -8
0 -24 -41 -40 -105 -6 -27 -16 -54 -22 -60 -6 -6 -7 -2 -2 14 5 18 4 22 -5 16
-9 -6 -11 -4 -5 5 5 7 11 30 15 51 7 37 7 38 -14 24 -40 -29 -37 -14 8 39 25
29 46 57 46 62 0 5 -6 2 -13 -6 -31 -37 -88 -84 -81 -67 5 14 3 16 -12 10 -15
-5 -13 1 9 26 32 38 28 54 -6 24 -34 -31 -55 -40 -32 -14 16 19 17 24 5 31
-12 8 -10 10 8 10 12 0 22 4 22 9 0 4 -11 6 -25 3 -20 -3 -24 -1 -19 12 5 14
2 15 -21 6 -33 -13 -32 -13 -32 5 0 8 14 19 31 25 17 6 42 19 56 30 34 27 2
16 -63 -22 -54 -32 -65 -35 -47 -13 11 13 8 15 -15 15 l-26 0 20 26 c11 15 19
30 16 33 -2 4 12 13 32 20 30 11 33 15 20 23 -22 12 -22 28 1 29 16 1 16 2 -1
6 -14 4 -16 8 -6 19 9 12 6 14 -22 15 l-34 1 30 8 30 7 -27 7 c-16 5 -25 12
-22 17 3 5 -5 13 -18 18 -17 7 -6 10 50 10 64 1 72 3 72 20 0 10 -7 22 -16 25
-25 10 -66 7 -59 -4 7 -11 -6 -13 -29 -4 -26 10 -8 24 32 25 31 0 34 2 17 10
-17 8 -17 9 5 4 14 -3 35 -8 48 -11 12 -4 22 -2 22 4 0 6 -14 14 -32 17 -37 9
-70 35 -43 35 9 0 25 -5 36 -11 11 -5 30 -9 42 -7 16 2 8 9 -33 25 l-55 22 38
0 c23 1 36 5 32 11 -3 6 0 10 7 10 9 0 9 3 -2 10 -11 7 -11 10 -2 10 7 0 10 5
7 10 -8 13 14 13 53 -1z m765 -106 c30 -34 31 -70 3 -97 -31 -32 -57 -33 -91
-3 -29 25 -37 76 -15 102 17 21 83 20 103 -2z"/>
<path d="M4155 9613 c-16 -3 -35 -9 -42 -15 -6 -5 -20 -9 -30 -8 -28 3 -64
-11 -60 -23 2 -6 -8 -22 -22 -35 -17 -15 -21 -26 -14 -30 7 -4 11 -28 10 -52
-1 -56 14 -85 123 -237 120 -168 228 -301 353 -436 16 -17 67 -90 114 -161 47
-71 112 -164 146 -205 80 -100 272 -289 376 -371 117 -93 262 -182 280 -174
38 16 138 16 170 0 29 -15 101 -111 101 -135 0 -5 14 -14 32 -20 30 -11 33 -9
61 24 33 41 98 80 145 89 74 13 125 -33 186 -167 44 -96 58 -98 127 -22 68 73
142 110 209 102 59 -7 117 -36 172 -85 33 -29 38 -32 25 -11 -10 14 -14 29
-10 32 9 10 -29 37 -42 30 -6 -4 -6 -2 -2 3 5 5 12 9 15 9 4 1 17 4 29 9 15 5
31 1 48 -10 14 -9 29 -14 33 -10 3 4 0 11 -7 15 -24 15 18 25 94 22 24 -1 27
-3 15 -12 -11 -8 -8 -9 13 -4 20 4 27 2 22 -6 -5 -8 2 -9 24 -4 21 4 37 2 48
-7 9 -7 14 -8 10 -2 -4 7 13 11 51 12 31 1 59 -3 62 -8 3 -5 18 -3 35 6 41 22
181 37 217 25 18 -6 26 -7 23 -1 -4 6 10 10 32 10 23 0 33 3 25 8 -16 11 27
32 66 32 15 0 34 5 42 10 11 7 5 10 -25 11 -22 0 -33 3 -25 6 23 9 50 35 45
43 -8 12 17 17 57 12 34 -4 36 -6 27 -29 -12 -32 -11 -36 3 -27 7 5 8 3 4 -5
-5 -7 0 -21 10 -32 16 -17 16 -22 4 -29 -8 -6 -21 -10 -29 -10 -9 0 -6 -7 9
-20 13 -11 17 -20 10 -20 -7 0 -10 -7 -6 -15 3 -9 -1 -18 -9 -21 -8 -4 -15
-10 -15 -15 0 -10 50 10 141 56 190 96 375 256 516 445 35 46 187 282 214 330
14 25 65 142 84 193 10 27 33 63 51 80 19 17 32 32 30 34 -1 2 -23 -6 -47 -16
-68 -31 -275 -66 -549 -95 -201 -21 -261 -27 -300 -30 -25 -2 -67 -6 -95 -10
-135 -17 -705 -31 -705 -18 0 5 -25 7 -55 4 -36 -3 -60 0 -70 8 -13 11 -20 11
-40 0 -19 -10 -28 -10 -38 -1 -8 6 -21 9 -30 5 -8 -3 -17 -1 -20 3 -3 5 -36 8
-74 7 -37 -1 -72 0 -77 3 -16 10 -86 11 -86 2 0 -5 -10 -3 -22 5 -13 9 -48 15
-83 16 -33 0 -76 3 -95 5 -19 2 -57 7 -85 10 -27 4 -66 7 -85 8 -19 1 -39 5
-45 8 -5 3 -25 5 -43 4 -19 -2 -39 3 -48 12 -13 14 -16 14 -28 -2 -9 -13 -15
-15 -20 -7 -4 7 -17 12 -28 12 -30 0 -149 29 -172 41 -14 8 -21 8 -26 -1 -6
-10 -15 -9 -39 3 -18 9 -38 14 -46 11 -7 -3 -24 1 -37 9 -13 8 -36 15 -53 15
-16 0 -31 5 -33 11 -2 6 -11 11 -21 11 -9 0 -26 7 -38 15 -16 11 -22 12 -25 3
-3 -8 -13 -5 -28 10 -14 12 -30 20 -36 18 -7 -3 -33 10 -57 29 -44 34 -68 37
-45 6 6 -9 -3 -1 -21 17 -18 17 -38 32 -45 32 -18 0 -66 24 -66 33 0 4 -7 7
-15 7 -9 0 -35 10 -58 21 -23 12 -53 25 -67 30 -49 15 -181 72 -332 144 -61
28 -99 71 -73 81 8 4 21 1 29 -5 7 -6 46 -15 87 -21 41 -5 95 -12 122 -16 31
-4 47 -3 47 4 0 6 10 13 23 15 22 4 22 5 1 12 -12 3 -33 25 -47 48 -21 32 -41
48 -84 67 -49 21 -53 25 -33 30 26 6 40 30 17 30 -18 0 -57 33 -57 49 0 6 -6
11 -13 11 -23 0 -78 31 -72 41 4 5 -1 9 -10 9 -9 0 -28 9 -42 20 -14 11 -36
20 -49 20 -13 0 -46 9 -74 20 -49 19 -81 22 -145 13z m688 -921 c5 15 10 16
32 6 14 -6 25 -15 25 -20 0 -4 13 -8 29 -8 22 0 31 -6 41 -30 17 -41 5 -96
-25 -116 -62 -40 -171 73 -157 164 2 12 7 20 12 17 5 -3 12 0 16 7 6 9 10 5
14 -12 5 -21 7 -22 13 -8z m3569 8 c10 0 7 -51 -6 -105 -2 -11 -5 -22 -6 -25
0 -3 -7 -14 -15 -24 -12 -16 -17 -17 -31 -5 -15 12 -16 12 -10 -9 11 -32 -21
-28 -64 8 -19 17 -43 31 -55 31 -15 1 -16 2 -3 6 9 2 35 -5 57 -17 49 -24 55
-11 9 20 -19 12 -25 19 -13 16 17 -5 20 -1 21 24 1 31 30 73 45 65 4 -3 14 1
21 9 7 9 19 13 26 11 8 -3 18 -5 24 -5z m-3101 -21 c11 -5 38 -11 59 -12 22
-1 40 -4 40 -7 0 -4 15 -12 34 -20 46 -18 78 -75 62 -111 -6 -14 -18 -35 -26
-45 -8 -10 0 -6 18 10 37 34 42 28 11 -14 -23 -31 -20 -60 7 -60 8 0 41 25 72
56 74 75 120 95 191 84 68 -12 91 -27 171 -111 l66 -69 71 0 c43 0 75 -5 79
-11 7 -13 -133 -8 -171 6 -17 6 -18 5 -5 -7 44 -38 -32 -114 -133 -132 -49 -9
-111 18 -158 71 -38 42 -76 134 -63 154 4 7 2 9 -7 5 -8 -3 -21 -9 -29 -12 -9
-3 -20 -15 -26 -27 -5 -12 -17 -21 -26 -21 -10 1 -14 -4 -11 -12 6 -16 -12
-17 -42 -4 -19 8 -18 9 4 9 28 1 25 9 -5 14 -10 1 -25 6 -32 11 -7 4 -11 4
-10 -1 4 -15 -14 -58 -35 -80 -44 -49 -152 -60 -194 -21 -35 32 -83 141 -95
214 -13 79 1 114 54 129 20 5 40 13 44 18 11 10 62 9 85 -4z m2666 -101 c16
-2 9 -63 -12 -94 l-15 -24 -435 0 c-249 0 -435 4 -435 9 0 16 74 39 120 36 25
-2 74 3 109 11 36 7 68 11 72 8 5 -2 36 0 71 6 80 13 187 23 259 24 42 1 62
-4 77 -18 20 -18 21 -17 53 19 31 35 35 36 78 31 25 -4 52 -7 58 -8z m272 -49
c19 -19 31 -41 31 -57 l0 -27 -19 25 -19 24 -6 -39 c-9 -56 -63 -160 -98 -190
-43 -36 -101 -34 -161 6 -26 17 -56 43 -67 57 l-21 26 45 11 c49 13 98 55 86
75 -5 9 -9 9 -14 1 -4 -6 -11 -11 -16 -11 -5 0 3 13 18 28 15 15 37 41 49 58
12 16 23 24 23 17 0 -6 -11 -25 -25 -41 -28 -33 -31 -42 -13 -42 6 0 9 3 6 6
-7 7 60 78 87 93 38 20 81 13 114 -20z m-1579 -14 c187 -17 277 -31 285 -45 5
-9 -572 -24 -650 -17 -27 3 -62 5 -77 6 -70 3 4 60 79 62 21 0 58 4 83 8 25 4
59 6 75 5 17 -2 109 -10 205 -19z m841 -92 c73 -9 -705 -21 -866 -13 -91 4
-95 5 -45 10 80 10 835 11 911 3z m221 -60 l37 -8 -24 -69 c-42 -120 -144
-248 -228 -286 -130 -60 -256 8 -410 220 -55 75 -58 89 -29 123 14 16 11 17
-58 17 -66 0 -72 -2 -55 -14 19 -13 19 -15 -9 -67 -109 -203 -232 -297 -375
-287 -78 5 -145 41 -216 113 -99 100 -153 212 -111 228 23 9 19 27 -6 29 -13
1 99 5 247 9 335 7 1187 2 1237 -8z"/>
<path d="M9555 8672 c-3 -8 -4 -16 -3 -17 6 -5 134 -57 233 -94 269 -102 485
-197 741 -325 l281 -141 82 22 c46 12 86 25 90 29 3 4 -6 4 -21 0 -16 -3 -28
-3 -28 2 0 5 -16 9 -36 10 -20 1 -56 13 -80 27 -24 14 -63 28 -86 31 -24 3
-47 11 -53 18 -5 7 -14 13 -18 14 -4 0 -27 9 -50 20 -128 60 -157 72 -171 72
-9 0 -16 5 -16 11 0 5 -4 7 -10 4 -11 -7 -52 13 -63 31 -4 7 -26 15 -50 19
-23 4 -64 17 -92 30 -101 44 -130 56 -152 59 -11 3 -34 11 -50 19 -15 8 -43
18 -60 22 -18 3 -35 11 -38 16 -4 5 -16 9 -28 9 -13 0 -54 15 -92 33 -39 19
-88 40 -110 47 -22 7 -47 18 -55 25 -25 21 -58 24 -65 7z"/>
<path d="M11411 7649 c-13 -5 -35 -9 -50 -8 -14 1 -55 -4 -91 -11 -89 -16
-251 -38 -335 -45 -16 -1 -37 -4 -45 -8 -8 -3 -42 -8 -75 -11 -33 -2 -109 -12
-170 -21 -60 -8 -130 -18 -153 -21 -24 -3 -42 -7 -40 -10 3 -2 121 9 264 26
446 51 707 91 729 111 12 12 -2 11 -34 -2z"/>
<path d="M9476 6745 c-48 -53 -135 -195 -120 -195 2 0 18 7 37 16 33 16 34 15
127 -30 52 -24 96 -43 98 -41 2 2 -9 23 -25 47 -32 48 -54 146 -51 221 2 26 1
47 -2 47 -3 0 -32 -29 -64 -65z"/>
<path d="M8875 6698 c-110 -115 -134 -145 -141 -183 -6 -32 0 -45 57 -132 78
-119 111 -158 163 -191 55 -34 145 -40 267 -17 52 10 121 17 154 16 l60 -1
-33 20 c-18 11 -35 20 -37 20 -11 0 -101 45 -112 56 -7 7 -26 15 -43 19 -16 4
-30 10 -30 15 0 4 -19 17 -43 28 -23 11 -53 31 -67 44 -14 14 -38 33 -54 43
-16 11 -24 21 -17 23 15 5 14 15 -6 38 -10 11 -24 31 -32 44 -11 20 -11 25 2
34 14 11 16 73 2 95 -7 12 12 52 29 63 6 4 7 10 3 14 -4 4 -16 -1 -26 -10 -19
-17 -20 -17 -23 9 -3 25 -6 23 -73 -47z"/>
<path d="M4290 5696 c0 -9 -7 -12 -18 -9 -10 2 -24 -3 -31 -11 -8 -9 -20 -16
-27 -16 -8 0 -14 -5 -14 -11 0 -6 6 -9 13 -6 9 3 11 -28 6 -147 -4 -83 -7
-275 -8 -426 -1 -288 -11 -559 -37 -970 -34 -556 -34 -552 50 -742 32 -72 82
-216 120 -348 36 -124 93 -317 126 -430 88 -294 140 -503 140 -561 0 -32 -13
-89 -35 -152 -19 -56 -38 -127 -43 -158 -14 -94 -87 -165 -245 -240 -34 -17
-53 -27 -42 -24 13 4 17 3 10 -4 -5 -5 -23 -12 -40 -15 -24 -5 -26 -4 -10 3
14 7 16 10 5 10 -9 1 -23 -7 -32 -18 -8 -10 -49 -31 -89 -46 -108 -39 -108
-39 -62 -43 27 -2 56 4 84 17 24 12 49 21 56 21 7 0 13 5 13 10 0 6 7 10 15
10 8 0 15 4 15 9 0 5 10 11 23 15 13 3 34 15 47 26 13 11 29 20 37 20 7 0 13
3 13 8 0 9 62 46 73 44 4 -1 10 5 14 13 3 9 23 25 44 36 22 11 39 23 39 27 0
5 17 21 39 37 21 16 37 35 34 41 -2 6 3 14 11 17 9 4 16 16 16 27 0 11 4 28 9
38 18 32 53 163 48 176 -3 8 -3 17 1 20 7 8 5 113 -3 126 -7 11 -45 159 -43
168 2 11 -13 66 -23 85 -6 10 -12 31 -14 45 -2 15 -12 54 -20 87 -9 33 -19 75
-22 93 -3 18 -9 35 -14 38 -5 3 -9 18 -9 33 0 15 -4 41 -9 57 -36 117 -42 141
-56 244 -2 14 -9 43 -15 65 -6 22 -16 60 -21 85 -6 25 -13 52 -16 60 -3 8 -7
40 -10 70 -2 30 -10 61 -17 70 -7 8 -12 20 -10 25 3 6 -5 21 -16 33 -11 11
-20 28 -20 36 0 8 -16 37 -35 66 -19 29 -35 60 -35 69 0 9 -4 21 -10 27 -5 5
-12 34 -15 64 -3 30 -10 81 -15 112 -8 41 -7 76 1 124 6 36 9 84 6 106 -3 23
-1 52 5 67 6 14 12 80 14 146 1 66 6 158 9 205 3 47 10 146 15 220 4 74 10
176 13 225 6 89 12 193 19 310 2 33 -1 66 -6 73 -5 8 -5 21 2 35 12 25 27 116
22 132 -2 6 -3 19 -2 30 1 11 3 68 6 127 2 65 8 114 16 122 6 9 8 21 4 27 -4
7 -3 10 2 6 5 -3 14 6 21 19 14 31 -5 33 -32 4 -10 -11 -23 -20 -28 -20 -6 0
0 11 13 25 l23 25 -21 0 c-12 0 -22 -6 -22 -14z"/>
<path d="M3508 1287 c-71 -58 -77 -61 -93 -47 -8 7 -15 7 -19 1 -4 -6 -13 -8
-21 -4 -8 3 -15 0 -15 -6 0 -6 -9 -11 -19 -11 -11 0 -36 -16 -56 -36 -29 -28
-39 -33 -46 -23 -6 10 -9 8 -9 -8 0 -14 -13 -29 -35 -43 -19 -12 -35 -27 -35
-34 0 -13 -91 -92 -102 -89 -4 2 -5 -3 -2 -10 2 -7 -7 -24 -21 -37 l-25 -23
-2 89 c-1 49 -2 101 -2 117 -1 17 -6 27 -16 27 -11 0 -12 3 -3 8 13 8 2 34
-13 31 -5 -1 -18 -1 -28 0 -14 1 -17 4 -9 12 6 6 17 11 24 12 23 4 40 18 33
28 -3 5 -22 -4 -42 -19 -20 -16 -51 -32 -67 -36 -45 -10 -89 -39 -116 -77
l-24 -33 35 21 c41 24 100 39 109 26 3 -4 20 -13 36 -18 25 -9 32 -18 39 -53
14 -68 -5 -113 -72 -171 -32 -28 -73 -71 -92 -97 -19 -25 -47 -52 -63 -60 -26
-14 -29 -13 -54 13 l-26 28 6 -39 c8 -51 52 -105 108 -133 42 -21 256 -59 371
-65 27 -2 48 -7 48 -11 0 -5 4 -6 8 -3 5 3 22 -8 37 -24 39 -41 77 -50 247
-57 162 -7 248 3 382 43 54 16 101 24 141 22 33 -1 78 4 99 12 l40 13 36 -43
c28 -33 47 -45 90 -56 113 -30 410 -40 536 -18 38 7 112 76 121 113 3 14 19
41 34 58 15 18 31 48 35 68 7 41 72 118 111 133 15 6 63 18 105 27 105 22 141
48 149 105 3 25 13 62 23 82 20 46 20 58 0 58 -8 0 -12 -5 -8 -11 3 -6 1 -15
-6 -19 -7 -4 -12 -19 -12 -33 0 -19 -5 -25 -19 -24 -13 1 -18 6 -14 17 5 12 4
12 -6 3 -10 -10 -9 -16 1 -28 7 -8 10 -18 6 -22 -3 -3 -6 -1 -6 5 0 7 -9 12
-21 12 -12 0 -36 15 -55 34 -19 19 -34 28 -34 21 0 -22 -17 -27 -33 -10 -19
19 -27 19 -27 1 0 -8 -7 -16 -15 -20 -8 -3 -15 -1 -15 4 0 6 -4 10 -8 10 -5 0
-14 -25 -21 -56 -13 -55 -37 -79 -67 -67 -11 4 -37 -53 -40 -87 0 -9 -11 -38
-24 -65 -13 -28 -22 -56 -21 -62 1 -7 -6 -13 -15 -13 -13 0 -14 -3 -5 -13 8
-11 6 -18 -9 -32 -25 -22 -61 -91 -52 -100 3 -3 -1 -3 -9 0 -10 4 -22 -3 -33
-20 -10 -14 -23 -24 -29 -22 -7 2 -20 0 -29 -5 -12 -5 -18 -5 -18 1 0 6 -7 8
-15 5 -8 -3 -21 0 -29 8 -38 33 -47 38 -76 38 -16 0 -30 4 -30 8 0 4 -16 7
-35 7 -34 -2 -35 -1 -18 19 18 19 18 19 -7 3 -62 -43 -114 -10 -168 106 -38
81 -39 83 -33 174 5 76 10 96 27 113 40 41 202 43 261 5 61 -40 62 -138 2
-243 -16 -29 -34 -65 -39 -78 l-9 -24 37 23 c53 34 93 116 95 194 1 80 -22
127 -76 155 -59 31 -76 34 -187 38 -19 0 -22 2 -10 9 8 6 18 7 22 5 5 -3 11 2
14 11 6 14 7 14 18 -1 11 -14 14 -13 29 10 9 14 17 27 17 30 0 2 -20 7 -44 10
-50 8 -72 27 -61 53 3 10 5 18 4 18 -1 0 8 19 19 41 12 23 18 45 14 48 -3 4 1
4 10 1 11 -4 18 0 23 15 4 12 4 24 1 27 -11 11 -58 -21 -85 -57 -44 -60 -82
-93 -93 -82 -8 8 -15 6 -25 -4 -8 -8 -32 -14 -52 -14 -44 0 -131 -44 -131 -66
0 -9 -4 -13 -9 -10 -5 3 -16 -4 -24 -17 -8 -12 -24 -31 -34 -43 -20 -20 -75
-159 -96 -241 -7 -24 -15 -43 -18 -43 -4 0 -10 -18 -14 -40 -4 -26 -12 -40
-22 -40 -9 0 -13 -6 -10 -14 6 -16 -16 -40 -26 -29 -4 3 -7 -1 -7 -10 0 -9 -7
-17 -15 -17 -8 0 -24 -9 -36 -21 -14 -14 -24 -18 -31 -11 -9 9 -32 5 -96 -19
-14 -6 -31 -5 -42 1 -10 5 -26 10 -35 10 -9 0 -25 9 -37 20 -12 10 -25 17 -30
14 -14 -9 -68 16 -68 31 0 7 18 15 41 19 36 6 39 8 25 22 -9 8 -16 18 -16 22
0 3 5 1 11 -5 13 -13 22 -8 68 39 75 73 65 249 -19 337 -18 18 -20 25 -10 31
7 5 19 6 27 3 20 -8 16 3 -14 36 -16 16 -41 33 -57 37 -37 9 -60 58 -39 83 50
59 99 131 88 131 -2 0 -28 -19 -57 -43z m-2 -282 c81 -25 128 -113 110 -209
-5 -25 -25 -55 -67 -98 -33 -35 -77 -88 -97 -118 -19 -30 -43 -60 -51 -67 -25
-19 -68 -15 -90 8 -26 28 -70 139 -78 195 -6 47 31 229 53 259 30 41 135 56
220 30z"/>
</g>
</svg>
